<svg id="Layer_1" data-name="Layer 1" xmlns="http://www.w3.org/2000/svg" viewBox="0 0 59.45 17.45"><defs><style>.cls-1{fill:#24313c;}.cls-2,.cls-3{fill:#1d9075;}.cls-3{opacity:0;}</style></defs><title>logo2</title><path class="cls-1" d="M8.75,31.57c0,.16,0,.34,0,.5H1.93a3,3,0,0,0,2.93,3A2.71,2.71,0,0,0,7.3,33.66l1.16.62a4,4,0,0,1-3.6,2.21C2.35,36.49.55,34.3.55,31.57s1.69-5,4.2-5S8.75,28.82,8.75,31.57ZM2,30.64H7.39C7.13,29.12,6.27,28,4.75,28A2.88,2.88,0,0,0,2,30.64Z" transform="translate(-0.55 -23.04)"/><path class="cls-1" d="M15.68,36.35V35.2a4.44,4.44,0,0,1-3.08,1.29c-1.63,0-2.84-.87-2.84-2.49,0-1.89,1.36-2.75,4.07-3.23,1.38-.23,1.91-.51,1.89-1.15s-.33-1.71-2-1.71a2,2,0,0,0-2.22,1.65l-1.17-.3a3.22,3.22,0,0,1,3.43-2.65A3,3,0,0,1,17,29.92c0,1.95,0,6.43,0,6.43Zm0-4.12v-.44c-.48.1-1.05.18-1.71.3-1.9.34-2.86.76-2.86,1.81s1.12,1.24,1.56,1.24A2.84,2.84,0,0,0,15.72,32.23Z" transform="translate(-0.55 -23.04)"/><path class="cls-1" d="M25,33.62c0,2-1.63,2.89-3.23,2.89a3.53,3.53,0,0,1-3.48-2.25l1.21-.54a2.16,2.16,0,0,0,2.27,1.36c.74,0,1.89-.28,1.89-1.46,0-.75-.46-1-2-1.41-1.32-.28-3-.66-3.26-2.45a2.84,2.84,0,0,1,3.06-3.15,3.1,3.1,0,0,1,3.12,2.07l-1.23.52A1.84,1.84,0,0,0,21.46,28c-1.28,0-1.89.7-1.76,1.48s.92,1,2.2,1.29C23.39,31.15,25,31.79,25,33.62Z" transform="translate(-0.55 -23.04)"/><path class="cls-1" d="M33.49,26.75l-3.1,9.31a16.38,16.38,0,0,1-1.48,3.4,2.3,2.3,0,0,1-2.75.9L26.4,39c1.24.25,1.59-.12,2.47-2.6l-3.23-9.6h1.43l2.5,7.59,2.51-7.59Z" transform="translate(-0.55 -23.04)"/><path class="cls-2" d="M45.59,32.91l1.69.86A6.36,6.36,0,0,1,41.73,37,6.63,6.63,0,0,1,35.2,30c0-3.87,2.75-7,6.53-7a6.34,6.34,0,0,1,5.55,3.2l-1.69.84a4.39,4.39,0,0,0-3.86-2.16c-2.78,0-4.65,2.26-4.65,5.09s1.87,5.08,4.65,5.08A4.37,4.37,0,0,0,45.59,32.91Z" transform="translate(-0.55 -23.04)"/><path class="cls-2" d="M41.77,28.84A1.18,1.18,0,0,1,42.94,30a1.16,1.16,0,1,1-1.17-1.18Z" transform="translate(-0.55 -23.04)"/><polygon class="cls-2" points="49.73 0.12 52.31 7.33 51.35 10 47.77 0.12 49.73 0.12"/><polygon class="cls-2" points="59.45 0.12 54.5 13.77 52.71 13.77 52.65 13.61 57.49 0.12 59.45 0.12"/><polygon class="cls-3" points="52.31 7.33 51.35 10 52.71 13.77 53.59 11.08 52.31 7.33"/></svg>