<?xml version="1.0" encoding="utf-8"?>
<!-- Generator: Adobe Illustrator 23.0.1, SVG Export Plug-In . SVG Version: 6.00 Build 0)  -->
<svg version="1.1" id="Layer_1" xmlns="http://www.w3.org/2000/svg" xmlns:xlink="http://www.w3.org/1999/xlink" x="0px" y="0px"
	 viewBox="0 0 60 60" enable-background="new 0 0 60 60" xml:space="preserve">
<g>
	<rect y="22.408" fill="none" width="34.022" height="14.539"/>
	<text transform="matrix(0.9207 0 0 1 0 36.3545)" fill="#24313C" font-family="'MADEEvolveSansEVO'" font-size="19.9243px">easy</text>
	<g>
		<path fill="#1D9075" d="M45.591,32.911l1.689,0.857c-1.132,1.912-3.131,3.179-5.551,3.179c-3.781,0-6.527-3.101-6.527-6.941
			c0-3.861,2.746-6.962,6.527-6.962c2.421,0,4.419,1.269,5.551,3.199l-1.689,0.838c-0.788-1.307-2.152-2.166-3.862-2.166
			c-2.783,0-4.648,2.262-4.648,5.09c0,2.807,1.864,5.089,4.648,5.089C43.44,35.094,44.803,34.237,45.591,32.911z"/>
		<path fill="#1D9075" d="M41.77,28.836c0.651,0,1.17,0.546,1.17,1.189c0,0.643-0.519,1.17-1.17,1.17
			c-0.635,0-1.154-0.527-1.154-1.17C40.616,29.382,41.135,28.836,41.77,28.836z"/>
		<polygon fill="#1D9075" points="50.283,23.161 52.857,30.376 51.897,33.048 48.325,23.161 		"/>
		<polygon fill="#1D9075" points="60,23.161 55.046,36.81 53.26,36.81 53.204,36.655 58.042,23.161 		"/>
	</g>
	<polygon opacity="0" fill="#1D9075" points="52.857,30.376 51.897,33.048 53.26,36.81 54.143,34.124 	"/>
</g>
</svg>
